<mxfile host="Electron" agent="Mozilla/5.0 (Macintosh; Intel Mac OS X 10_15_7) AppleWebKit/537.36 (KHTML, like Gecko) draw.io/28.0.6 Chrome/138.0.7204.100 Electron/37.2.3 Safari/537.36" version="28.0.6">
  <diagram name="Page-1" id="oSzGu3YSpmeSQrcyzl7i">
    <mxGraphModel dx="1002" dy="766" grid="1" gridSize="10" guides="1" tooltips="1" connect="1" arrows="1" fold="1" page="1" pageScale="1" pageWidth="850" pageHeight="1100" math="0" shadow="0">
      <root>
        <mxCell id="0" />
        <mxCell id="1" parent="0" />
        <mxCell id="qzX9WnzFwtqkp_D5N4OY-1" value="Booking System REST" style="swimlane;whiteSpace=wrap;html=1;fillColor=#f5f5f5;fontColor=#333333;strokeColor=#666666;startSize=70;" vertex="1" parent="1">
          <mxGeometry x="66" y="201" width="200" height="200" as="geometry" />
        </mxCell>
        <mxCell id="qzX9WnzFwtqkp_D5N4OY-2" value="HR Database" style="swimlane;whiteSpace=wrap;html=1;fillColor=#f5f5f5;fontColor=#333333;strokeColor=#666666;startSize=70;" vertex="1" parent="1">
          <mxGeometry x="400" y="200" width="200" height="200" as="geometry" />
        </mxCell>
        <mxCell id="qzX9WnzFwtqkp_D5N4OY-3" value="sqlite" style="shape=cylinder3;whiteSpace=wrap;html=1;boundedLbl=1;backgroundOutline=1;size=15;" vertex="1" parent="1">
          <mxGeometry x="110" y="470" width="110" height="110" as="geometry" />
        </mxCell>
        <mxCell id="qzX9WnzFwtqkp_D5N4OY-4" value="" style="endArrow=classic;html=1;rounded=0;entryX=0.5;entryY=0;entryDx=0;entryDy=0;entryPerimeter=0;exitX=0.5;exitY=1;exitDx=0;exitDy=0;" edge="1" parent="1" source="qzX9WnzFwtqkp_D5N4OY-1" target="qzX9WnzFwtqkp_D5N4OY-3">
          <mxGeometry width="50" height="50" relative="1" as="geometry">
            <mxPoint x="170" y="400" as="sourcePoint" />
            <mxPoint x="450" y="370" as="targetPoint" />
          </mxGeometry>
        </mxCell>
        <mxCell id="qzX9WnzFwtqkp_D5N4OY-5" value="Markdown&lt;br&gt;file" style="shape=note;whiteSpace=wrap;html=1;backgroundOutline=1;darkOpacity=0.05;" vertex="1" parent="1">
          <mxGeometry x="460" y="470" width="80" height="100" as="geometry" />
        </mxCell>
        <mxCell id="qzX9WnzFwtqkp_D5N4OY-6" value="" style="endArrow=classic;html=1;rounded=0;" edge="1" parent="1" target="qzX9WnzFwtqkp_D5N4OY-5">
          <mxGeometry width="50" height="50" relative="1" as="geometry">
            <mxPoint x="500" y="400" as="sourcePoint" />
            <mxPoint x="160" y="509" as="targetPoint" />
          </mxGeometry>
        </mxCell>
      </root>
    </mxGraphModel>
  </diagram>
</mxfile>
